<?xml version="1.0" standalone="no"?>
<!DOCTYPE svg PUBLIC "-//W3C//DTD SVG 20010904//EN"
 "http://www.w3.org/TR/2001/REC-SVG-20010904/DTD/svg10.dtd">
<svg version="1.0" xmlns="http://www.w3.org/2000/svg"
 width="64" height="64" viewBox="0 0 64 64"
 preserveAspectRatio="xMidYMid meet">

<g transform="translate(0.000000,64.000000) scale(0.100000,-0.100000)"
fill="currentColor" stroke="none">
<path d="M42 628 c-16 -16 -16 -140 0 -156 7 -7 39 -12 73 -12 79 0 95 15 95
92 0 60 -18 88 -58 88 -32 0 -27 -18 6 -22 26 -3 27 -5 27 -68 l0 -65 -65 0
-65 0 0 65 c0 60 2 65 23 68 12 2 22 8 22 13 0 13 -44 11 -58 -3z"/>
<path d="M246 624 c-11 -10 -16 -34 -16 -74 0 -77 13 -90 90 -90 77 0 90 13
90 90 0 77 -13 90 -90 90 -40 0 -64 -5 -74 -16z m139 -74 l0 -65 -65 0 -65 0
-3 54 c-5 80 -2 82 70 79 l63 -3 0 -65z"/>
<path d="M447 622 c-24 -27 -23 -123 1 -145 20 -18 62 -23 62 -8 0 5 -12 11
-27 13 -27 3 -28 5 -28 68 l0 65 65 0 65 0 0 -65 c0 -60 -2 -65 -22 -68 -30
-4 -30 -22 0 -22 37 0 47 19 47 90 0 38 -5 71 -12 78 -7 7 -39 12 -73 12 -47
0 -66 -4 -78 -18z"/>
<path d="M131 566 c-8 -10 -21 -14 -32 -11 -22 7 -25 -7 -5 -24 10 -9 19 -7
36 7 13 10 21 24 19 31 -4 10 -8 9 -18 -3z"/>
<path d="M251 431 c-10 -6 -16 -33 -19 -75 -4 -53 -8 -67 -23 -71 -22 -7 -35
-47 -23 -72 6 -14 9 -11 13 16 10 57 31 51 31 -9 0 -31 4 -49 10 -45 6 4 10
55 10 120 0 73 4 116 11 121 20 12 29 -20 31 -116 1 -86 2 -89 7 -35 4 44 10
60 21 60 11 0 17 -16 21 -60 4 -48 6 -52 7 -20 4 80 42 88 42 9 0 -28 4 -43
10 -39 6 3 10 20 10 36 0 20 4 29 13 27 17 -6 21 -109 7 -190 l-12 -68 -89 0
c-86 0 -89 1 -89 23 0 12 -9 36 -20 52 -11 17 -20 43 -20 58 0 16 -4 26 -10
22 -16 -10 -12 -47 10 -83 11 -18 20 -46 20 -62 l0 -30 108 0 108 0 12 78 c23
146 13 222 -28 222 -11 0 -20 4 -20 8 0 9 -70 42 -88 42 -7 0 -12 16 -12 39 0
26 -5 41 -16 45 -19 7 -16 8 -33 -3z"/>
</g>
</svg>
