<?xml version="1.0" standalone="no"?>
<!DOCTYPE svg PUBLIC "-//W3C//DTD SVG 20010904//EN"
 "http://www.w3.org/TR/2001/REC-SVG-20010904/DTD/svg10.dtd">
<svg version="1.0" xmlns="http://www.w3.org/2000/svg"
 width="64" height="64" viewBox="0 0 64 64"
 preserveAspectRatio="xMidYMid meet">

<g transform="translate(0.000000,64.000000) scale(0.100000,-0.100000)"
fill="currentColor" stroke="none">
<path d="M278 626 c-8 -8 -26 -16 -39 -18 -32 -4 -38 -42 -10 -60 12 -7 21
-20 21 -29 0 -9 6 -19 13 -21 20 -8 37 2 37 22 0 11 16 25 46 39 39 19 45 25
42 49 -3 25 -7 27 -49 30 -31 2 -52 -2 -61 -12z m97 -26 c0 -9 -11 -16 -27
-18 -16 -2 -28 -7 -28 -11 0 -5 -9 -11 -20 -14 -13 -3 -20 -14 -21 -29 l0 -23
-9 23 c-5 12 -16 25 -25 28 -21 9 -19 34 4 34 10 0 24 7 31 15 18 21 95 17 95
-5z"/>
<path d="M22 588 c-19 -19 -14 -36 21 -71 18 -17 36 -40 40 -50 9 -25 41 -17
45 11 2 12 10 22 17 22 19 0 29 38 15 55 -7 8 -25 15 -40 15 -15 0 -33 7 -40
15 -15 18 -42 19 -58 3z m52 -23 c3 -9 19 -15 41 -15 36 0 50 -22 20 -34 -9
-3 -20 -16 -25 -28 -5 -13 -9 -16 -9 -8 -1 8 -17 28 -36 44 -19 16 -35 35 -35
43 0 18 37 17 44 -2z"/>
<path d="M226 418 c-3 -29 -6 -78 -6 -108 0 -62 -6 -74 -36 -84 -21 -6 -22 -3
-29 99 -5 78 -10 105 -20 105 -10 0 -12 -10 -8 -35 5 -34 5 -35 -26 -35 -17 0
-31 1 -31 3 0 1 4 17 9 35 7 24 6 32 -3 32 -14 0 -26 -68 -26 -150 0 -81 -11
-120 -31 -120 -17 0 -19 -9 -19 -80 l0 -80 320 0 320 0 0 25 c0 14 -4 25 -10
25 -5 0 -10 -7 -10 -15 0 -10 -11 -15 -35 -15 -34 0 -35 1 -35 40 l0 40 -45 0
-45 0 0 -40 0 -40 -40 0 -40 0 0 170 0 170 120 0 120 0 0 -140 c0 -87 4 -140
10 -140 6 0 10 67 10 180 l0 180 -44 0 c-40 0 -45 -3 -54 -30 -11 -29 -12 -29
-94 -32 l-83 -3 -3 -57 c-3 -63 -2 -62 -86 -74 -48 -7 -49 -6 -43 17 4 13 7
34 7 47 0 19 5 22 35 22 31 0 35 -3 35 -25 0 -14 5 -25 11 -25 9 0 10 20 6 68
-4 37 -7 79 -7 95 0 25 -3 27 -44 27 l-43 0 -7 -52z m74 7 c0 -20 -5 -25 -23
-25 -30 0 -36 6 -30 31 3 12 14 19 29 19 19 0 24 -5 24 -25z m320 -25 c0 -16
-7 -20 -34 -20 -29 0 -33 3 -29 20 4 14 14 20 34 20 22 0 29 -5 29 -20z m-310
-35 c0 -10 -11 -15 -35 -15 -24 0 -35 5 -35 15 0 10 11 15 35 15 24 0 35 -5
35 -15z m-170 -45 c0 -16 -7 -20 -35 -20 -28 0 -35 4 -35 20 0 16 7 20 35 20
28 0 35 -4 35 -20z m0 -70 c0 -23 -6 -33 -25 -40 -14 -5 -25 -16 -25 -25 0 -8
-7 -15 -15 -15 -16 0 -18 15 -9 73 6 34 9 37 40 37 31 0 34 -3 34 -30z m220
-120 l0 -110 -170 0 -170 0 0 59 c0 63 7 71 56 71 16 0 27 8 33 22 7 19 24 25
117 44 60 12 115 22 122 23 9 1 12 -27 12 -109z m168 -77 c3 -30 1 -33 -22
-33 -23 0 -26 4 -26 36 0 31 3 35 23 32 17 -2 23 -11 25 -35z"/>
<path d="M150 155 c0 -20 5 -25 25 -25 20 0 25 5 25 25 0 20 -5 25 -25 25 -20
0 -25 -5 -25 -25z"/>
<path d="M220 155 c0 -20 5 -25 25 -25 20 0 25 5 25 25 0 20 -5 25 -25 25 -20
0 -25 -5 -25 -25z"/>
<path d="M284 165 c-4 -9 -2 -21 4 -27 16 -16 47 -5 47 17 0 26 -42 34 -51 10z"/>
<path d="M60 100 c0 -6 52 -10 135 -10 83 0 135 4 135 10 0 6 -52 10 -135 10
-83 0 -135 -4 -135 -10z"/>
<path d="M414 305 c-11 -28 7 -35 92 -35 83 0 84 0 84 25 0 25 -1 25 -85 25
-66 0 -87 -3 -91 -15z m124 -12 c-21 -2 -55 -2 -75 0 -21 2 -4 4 37 4 41 0 58
-2 38 -4z"/>
<path d="M414 235 c-9 -23 5 -35 42 -35 30 0 34 3 34 25 0 22 -4 25 -35 25
-22 0 -38 -6 -41 -15z m49 -12 c-7 -2 -19 -2 -25 0 -7 3 -2 5 12 5 14 0 19 -2
13 -5z"/>
<path d="M510 225 c0 -22 4 -25 40 -25 36 0 40 3 40 25 0 23 -4 25 -40 25 -36
0 -40 -2 -40 -25z m53 -2 c-7 -2 -19 -2 -25 0 -7 3 -2 5 12 5 14 0 19 -2 13
-5z"/>
<path d="M414 165 c-12 -29 4 -46 38 -43 28 2 34 8 36 31 3 25 1 27 -33 27
-22 0 -38 -6 -41 -15z m56 -15 c0 -5 -6 -10 -14 -10 -8 0 -18 5 -21 10 -3 6 3
10 14 10 12 0 21 -4 21 -10z"/>
<path d="M512 153 c3 -25 7 -28 38 -28 31 0 35 3 35 25 0 22 -5 25 -38 28 -37
3 -38 2 -35 -25z m58 -3 c0 -5 -9 -10 -20 -10 -11 0 -20 5 -20 10 0 6 9 10 20
10 11 0 20 -4 20 -10z"/>
</g>
</svg>
