<?xml version="1.0" standalone="no"?>
<!DOCTYPE svg PUBLIC "-//W3C//DTD SVG 20010904//EN"
 "http://www.w3.org/TR/2001/REC-SVG-20010904/DTD/svg10.dtd">
<svg version="1.0" xmlns="http://www.w3.org/2000/svg"
 width="64" height="64" viewBox="0 0 64 64"
 preserveAspectRatio="xMidYMid meet">

<g transform="translate(0.000000,64.000000) scale(0.100000,-0.100000)"
fill="currentColor" stroke="none">
<path d="M267 634 c-4 -4 -7 -21 -7 -39 0 -26 -5 -33 -35 -44 -31 -11 -38 -10
-61 8 -27 21 -35 20 -67 -8 -34 -29 -38 -47 -16 -75 18 -23 19 -30 8 -60 -11
-30 -18 -35 -48 -38 l-36 -3 0 -55 0 -55 36 -3 c30 -3 37 -8 48 -38 11 -30 10
-37 -8 -60 -21 -27 -20 -35 8 -67 29 -34 47 -38 75 -16 23 18 30 19 60 8 30
-11 35 -18 38 -48 l3 -36 55 0 55 0 3 36 c3 30 8 37 38 48 30 11 37 10 60 -8
30 -24 50 -18 83 25 21 27 20 35 -6 66 -12 14 -13 22 -2 52 11 30 18 35 48 38
30 2 36 7 39 28 2 23 1 24 -11 7 -8 -9 -26 -17 -39 -17 -30 0 -41 -12 -59 -62
-12 -35 -11 -39 9 -61 l22 -23 -28 -27 -28 -27 -22 22 c-20 21 -24 21 -59 9
-53 -19 -63 -29 -63 -62 0 -27 -3 -29 -40 -29 -37 0 -40 2 -40 29 0 33 -10 43
-63 62 -35 12 -39 12 -59 -9 l-22 -22 -28 27 -28 27 22 23 c20 22 21 26 9 61
-19 52 -29 62 -62 62 -27 0 -29 3 -29 40 0 37 2 40 29 40 33 0 43 10 62 62 12
35 11 39 -9 61 l-22 23 28 27 28 27 22 -22 c20 -21 24 -21 59 -9 53 19 63 29
63 62 0 27 3 29 40 29 37 0 40 -2 40 -29 0 -33 10 -43 63 -62 35 -12 39 -12
59 9 l22 22 28 -27 28 -27 -22 -23 c-20 -22 -21 -26 -9 -61 19 -51 29 -62 61
-62 16 0 30 -6 33 -12 2 -7 8 -10 12 -6 17 16 -5 38 -38 38 -29 0 -35 5 -46
35 -11 31 -10 38 8 61 21 27 20 35 -8 67 -29 34 -47 38 -75 16 -23 -18 -30
-19 -60 -8 -30 11 -35 18 -38 48 -3 36 -3 36 -53 39 -28 2 -54 0 -58 -4z"/>
<path d="M234 471 c-102 -62 -119 -189 -35 -272 72 -72 170 -72 242 0 47 46
64 105 49 161 -19 71 -98 139 -147 127 -17 -4 -17 -4 2 -11 81 -29 117 -67
130 -138 14 -76 -53 -161 -139 -175 -74 -12 -159 57 -173 141 -11 67 60 166
119 166 9 0 20 5 23 10 11 17 -38 11 -71 -9z"/>
<path d="M340 355 l-34 -35 -22 21 c-27 26 -58 21 -62 -9 -4 -27 56 -92 85
-92 30 0 115 93 111 121 -5 38 -38 35 -78 -6z m60 3 c0 -15 -80 -98 -95 -98
-20 0 -78 67 -65 75 6 4 22 -2 34 -14 30 -28 36 -27 76 14 35 37 50 43 50 23z"/>
</g>
</svg>
