<?xml version="1.0" standalone="no"?>
<!DOCTYPE svg PUBLIC "-//W3C//DTD SVG 20010904//EN"
 "http://www.w3.org/TR/2001/REC-SVG-20010904/DTD/svg10.dtd">
<svg version="1.0" xmlns="http://www.w3.org/2000/svg"
 width="64" height="64" viewBox="0 0 64 64"
 preserveAspectRatio="xMidYMid meet">

<g transform="translate(0.000000,64.000000) scale(0.100000,-0.100000)"
fill="currentColor" stroke="none">
<path d="M285 604 c-11 -8 -27 -19 -35 -24 -8 -5 -12 -12 -8 -15 4 -4 23 2 43
14 l35 21 51 -32 c28 -17 80 -40 117 -52 37 -12 73 -25 81 -30 18 -12 9 -163
-13 -224 -10 -29 -12 -42 -4 -40 29 10 58 176 44 250 -6 32 -10 35 -79 55 -39
12 -98 38 -131 57 -66 40 -73 42 -101 20z"/>
<path d="M175 571 c-7 -35 -20 -47 -58 -56 -35 -9 -35 -21 0 -30 38 -9 51 -21
58 -56 8 -37 22 -37 30 0 7 35 20 47 58 56 35 9 35 21 0 30 -38 9 -51 21 -58
56 -4 16 -10 29 -15 29 -5 0 -11 -13 -15 -29z m33 -88 l-21 -22 -17 21 c-15
19 -15 23 -1 38 15 15 18 15 38 1 l21 -16 -20 -22z"/>
<path d="M307 544 c-3 -4 21 -20 54 -36 33 -16 63 -27 67 -24 7 7 7 7 -52 39
-51 29 -59 31 -69 21z"/>
<path d="M45 477 c-26 -59 39 -336 72 -304 4 4 1 17 -6 29 -27 44 -43 106 -50
198 -5 63 -10 89 -16 77z"/>
<path d="M455 470 c3 -5 13 -10 21 -10 8 0 12 5 9 10 -3 6 -13 10 -21 10 -8 0
-12 -4 -9 -10z"/>
<path d="M515 403 c0 -32 -4 -75 -9 -95 -5 -25 -5 -38 2 -38 14 0 34 99 30
146 -5 61 -23 50 -23 -13z"/>
<path d="M103 380 c10 -125 79 -231 176 -275 33 -15 46 -16 66 -7 33 15 33 35
0 22 -30 -11 -46 -6 -103 32 -71 48 -122 155 -122 255 0 26 -5 43 -11 43 -9 0
-10 -21 -6 -70z"/>
<path d="M368 363 l-57 -57 -24 22 c-26 24 -57 28 -75 10 -22 -22 -13 -43 38
-93 40 -40 53 -47 69 -39 23 11 161 158 161 171 0 12 -33 43 -46 43 -5 0 -35
-26 -66 -57z m90 19 c2 -6 -30 -46 -72 -89 l-75 -78 -45 45 c-25 24 -46 48
-46 52 0 20 33 19 54 -1 12 -11 29 -21 37 -21 8 0 39 25 69 55 53 53 70 61 78
37z"/>
<path d="M485 211 c-7 -35 -20 -47 -58 -56 -35 -9 -35 -21 0 -30 38 -9 51 -21
58 -56 4 -16 10 -29 15 -29 5 0 11 13 15 29 7 35 20 47 58 56 35 9 35 21 0 30
-38 9 -51 21 -58 56 -4 16 -10 29 -15 29 -5 0 -11 -13 -15 -29z m33 -88 l-21
-22 -17 21 c-15 19 -15 23 -1 38 15 15 18 15 38 1 l21 -16 -20 -22z"/>
<path d="M130 145 c0 -8 7 -15 16 -15 14 0 14 3 4 15 -7 8 -14 15 -16 15 -2 0
-4 -7 -4 -15z"/>
<path d="M170 106 c0 -14 94 -72 133 -82 19 -4 43 1 82 21 30 14 55 31 55 36
0 13 -5 12 -62 -17 -58 -30 -71 -28 -150 20 -33 20 -58 29 -58 22z"/>
</g>
</svg>
