<svg width="44" height="45" viewBox="0 0 44 45" fill="none" xmlns="http://www.w3.org/2000/svg">
<g clip-path="url(#clip0_5007_822)">
<path d="M22 45C34.1503 45 44 34.9264 44 22.5C44 10.0736 34.1503 0 22 0C9.84974 0 0 10.0736 0 22.5C0 34.9264 9.84974 45 22 45Z" fill="white"/>
<path d="M22 0C9.85021 0 0 10.0741 0 22.5C0 32.037 5.79424 40.1852 13.9786 43.463C13.7794 41.6852 13.6165 38.9444 14.051 37C14.4494 35.2407 16.6222 25.8148 16.6222 25.8148C16.6222 25.8148 15.9704 24.463 15.9704 22.4815C15.9704 19.3519 17.7449 17.0185 19.9539 17.0185C21.837 17.0185 22.7424 18.463 22.7424 20.1852C22.7424 22.1111 21.5473 25 20.9136 27.6852C20.3885 29.9259 22.0181 31.7593 24.1728 31.7593C28.084 31.7593 31.0897 27.537 31.0897 21.463C31.0897 16.0741 27.3053 12.3148 21.8914 12.3148C15.6263 12.3148 11.9506 17.1111 11.9506 22.0741C11.9506 24 12.6749 26.0741 13.5802 27.2037C13.7613 27.4259 13.7794 27.6296 13.7251 27.8519C13.5621 28.5556 13.1819 30.0926 13.1095 30.4074C13.0189 30.8148 12.7835 30.9074 12.3671 30.7037C9.61482 29.3889 7.89465 25.2963 7.89465 21.9815C7.89465 14.8889 12.9284 8.37037 22.4346 8.37037C30.0576 8.37037 35.9967 13.9259 35.9967 21.3704C35.9967 29.1296 31.2165 35.3704 24.5893 35.3704C22.3621 35.3704 20.2617 34.1852 19.5556 32.7778C19.5556 32.7778 18.451 37.0741 18.1794 38.1296C17.6905 40.0926 16.3506 42.537 15.4453 44.037C17.5095 44.6852 19.6823 45.037 21.9638 45.037C34.1136 45.037 43.9638 34.963 43.9638 22.537C44 10.0741 34.1498 0 22 0Z" fill="#1D1D1D"/>
</g>
<defs>
<clipPath id="clip0_5007_822">
<rect width="44" height="45" fill="white"/>
</clipPath>
</defs>
</svg>
