<svg width="36" height="33" viewBox="0 0 36 33" fill="none" xmlns="http://www.w3.org/2000/svg">
<rect x="7.93701" y="7.47363" width="9.97124" height="7.36337" rx="1" stroke="black" stroke-linejoin="round"/>
<rect x="17.9082" y="7.47363" width="9.97124" height="7.36337" rx="1" stroke="black" stroke-linejoin="round"/>
<path d="M27.552 11.6462H31.1927V3C31.1927 1.89543 30.2973 1 29.1927 1H6.68457C5.58 1 4.68457 1.89543 4.68457 3V11.6462H8.05451" stroke="black" stroke-linejoin="round"/>
<path d="M4.80734 11.6462L1.00293 22.0163H18.5523" stroke="black" stroke-linecap="round" stroke-linejoin="round"/>
<path d="M31.1927 11.6462L34.9971 22.0163H17.4477" stroke="black" stroke-linecap="round" stroke-linejoin="round"/>
<rect x="1.00293" y="22.0164" width="33.9942" height="6.32023" stroke="black" stroke-linejoin="round"/>
<line x1="1.80957" y1="28.5603" x2="1.80957" y2="32.4999" stroke="black" stroke-linecap="round"/>
<line x1="0.5" y1="-0.5" x2="4.4396" y2="-0.5" transform="matrix(4.37115e-08 1 1 -4.37115e-08 34.9971 28.0605)" stroke="black" stroke-linecap="round"/>
</svg>
