<svg width="32" height="34" viewBox="0 0 32 34" fill="none" xmlns="http://www.w3.org/2000/svg">
<path d="M1.21191 10.8994H30.788V26.0665H1.21191V10.8994Z" stroke="black" stroke-linejoin="round"/>
<path d="M4.18574 7.91992L1.21191 10.8992H30.788L27.8141 7.91992H4.18574Z" stroke="black" stroke-linejoin="round"/>
<rect x="4.86816" y="18.1038" width="6.60857" height="7.96278" stroke="black" stroke-linejoin="round"/>
<path d="M20.171 15.0854H16.0542V20.6496H20.171V15.0854Z" stroke="black" stroke-linejoin="round"/>
<path d="M23.3125 15.0854H27.4293" stroke="black" stroke-linecap="round"/>
<path d="M4.86816 15.0854L11.4767 15.0854" stroke="black" stroke-linecap="round"/>
<path d="M17.4355 7.67628C17.4355 3.98907 20.4246 1 24.1118 1C27.799 1 30.7881 3.98907 30.7881 7.67628C30.7881 8.68759 30.5632 9.64639 30.1608 10.5054" stroke="black"/>
<path d="M1.21191 29.5332L30.788 29.5332" stroke="black" stroke-linecap="round" stroke-linejoin="round"/>
<path d="M1.21191 33L30.788 33" stroke="black" stroke-linecap="round" stroke-linejoin="round"/>
</svg>
